<svg width="1933" height="239" viewBox="0 0 1933 239" fill="none" xmlns="http://www.w3.org/2000/svg">
<path d="M58.8008 110.1H78.3008C99.9008 110.1 110.701 100.7 110.701 81.9C110.701 63.1 99.9008 53.7 78.3008 53.7H58.8008V110.1ZM58.8008 232.5H0.000782341V6.3H93.6008C119.001 6.3 138.401 12.9 151.801 26.1C165.401 39.3 172.201 57.9 172.201 81.9C172.201 105.9 165.401 124.5 151.801 137.7C138.401 150.9 119.001 157.5 93.6008 157.5H58.8008V232.5ZM262.121 107.4H273.221C284.821 107.4 293.721 105 299.921 100.2C306.121 95.4 309.221 88.5 309.221 79.5C309.221 70.5 306.121 63.6 299.921 58.8C293.721 54 284.821 51.6 273.221 51.6H262.121V107.4ZM391.421 232.5H318.221L262.121 145.5V232.5H203.321V6.3H294.821C307.421 6.3 318.421 8.2 327.821 12C337.221 15.6 344.921 20.6 350.921 27C357.121 33.4 361.721 40.8 364.721 49.2C367.921 57.6 369.521 66.6 369.521 76.2C369.521 93.4 365.321 107.4 356.921 118.2C348.721 128.8 336.521 136 320.321 139.8L391.421 232.5ZM463.215 119.4C463.215 128.4 464.915 136.7 468.315 144.3C471.715 151.9 476.315 158.5 482.115 164.1C487.915 169.7 494.615 174.1 502.215 177.3C510.015 180.3 518.215 181.8 526.815 181.8C535.415 181.8 543.515 180.3 551.115 177.3C558.915 174.1 565.715 169.7 571.515 164.1C577.515 158.5 582.215 151.9 585.615 144.3C589.015 136.7 590.715 128.4 590.715 119.4C590.715 110.4 589.015 102.1 585.615 94.5C582.215 86.9 577.515 80.3 571.515 74.7C565.715 69.1 558.915 64.8 551.115 61.8C543.515 58.6 535.415 57 526.815 57C518.215 57 510.015 58.6 502.215 61.8C494.615 64.8 487.915 69.1 482.115 74.7C476.315 80.3 471.715 86.9 468.315 94.5C464.915 102.1 463.215 110.4 463.215 119.4ZM401.715 119.4C401.715 102.6 404.815 87 411.015 72.6C417.215 58 425.815 45.3 436.815 34.5C447.815 23.7 460.915 15.3 476.115 9.29999C491.515 3.09999 508.415 -1.07288e-05 526.815 -1.07288e-05C545.015 -1.07288e-05 561.815 3.09999 577.215 9.29999C592.615 15.3 605.815 23.7 616.815 34.5C628.015 45.3 636.715 58 642.915 72.6C649.115 87 652.215 102.6 652.215 119.4C652.215 136.2 649.115 151.9 642.915 166.5C636.715 180.9 628.015 193.5 616.815 204.3C605.815 215.1 592.615 223.6 577.215 229.8C561.815 235.8 545.015 238.8 526.815 238.8C508.415 238.8 491.515 235.8 476.115 229.8C460.915 223.6 447.815 215.1 436.815 204.3C425.815 193.5 417.215 180.9 411.015 166.5C404.815 151.9 401.715 136.2 401.715 119.4ZM818.956 56.1H748.156V93.9H812.656V143.7H748.156V232.5H689.356V6.3H818.956V56.1ZM912.805 6.3V232.5H854.005V6.3H912.805ZM1045.86 56.1V232.5H987.059V56.1H938.759V6.3H1094.16V56.1H1045.86Z" fill="white"/>
<path d="M1179.11 186.9H1192.01C1206.81 186.9 1217.41 185 1223.81 181.2C1230.21 177.4 1233.41 171.3 1233.41 162.9C1233.41 154.5 1230.21 148.4 1223.81 144.6C1217.41 140.8 1206.81 138.9 1192.01 138.9H1179.11V186.9ZM1179.11 95.1H1189.91C1208.31 95.1 1217.51 87.8 1217.51 73.2C1217.51 58.6 1208.31 51.3 1189.91 51.3H1179.11V95.1ZM1120.31 6.3H1207.91C1228.71 6.3 1244.51 11.3 1255.31 21.3C1266.11 31.3 1271.51 45.7 1271.51 64.5C1271.51 75.9 1269.41 85.4 1265.21 93C1261.21 100.4 1255.01 106.7 1246.61 111.9C1255.01 113.5 1262.11 116 1267.91 119.4C1273.91 122.6 1278.71 126.6 1282.31 131.4C1286.11 136.2 1288.81 141.6 1290.41 147.6C1292.01 153.6 1292.81 160 1292.81 166.8C1292.81 177.4 1290.91 186.8 1287.11 195C1283.51 203.2 1278.31 210.1 1271.51 215.7C1264.91 221.3 1256.81 225.5 1247.21 228.3C1237.61 231.1 1226.81 232.5 1214.81 232.5H1120.31V6.3ZM1377.57 119.4C1377.57 128.4 1379.27 136.7 1382.67 144.3C1386.07 151.9 1390.67 158.5 1396.47 164.1C1402.27 169.7 1408.97 174.1 1416.57 177.3C1424.37 180.3 1432.57 181.8 1441.17 181.8C1449.77 181.8 1457.87 180.3 1465.47 177.3C1473.27 174.1 1480.07 169.7 1485.87 164.1C1491.87 158.5 1496.57 151.9 1499.97 144.3C1503.37 136.7 1505.07 128.4 1505.07 119.4C1505.07 110.4 1503.37 102.1 1499.97 94.5C1496.57 86.9 1491.87 80.3 1485.87 74.7C1480.07 69.1 1473.27 64.8 1465.47 61.8C1457.87 58.6 1449.77 57 1441.17 57C1432.57 57 1424.37 58.6 1416.57 61.8C1408.97 64.8 1402.27 69.1 1396.47 74.7C1390.67 80.3 1386.07 86.9 1382.67 94.5C1379.27 102.1 1377.57 110.4 1377.57 119.4ZM1316.07 119.4C1316.07 102.6 1319.17 87 1325.37 72.6C1331.57 58 1340.17 45.3 1351.17 34.5C1362.17 23.7 1375.27 15.3 1390.47 9.29999C1405.87 3.09999 1422.77 -1.07288e-05 1441.17 -1.07288e-05C1459.37 -1.07288e-05 1476.17 3.09999 1491.57 9.29999C1506.97 15.3 1520.17 23.7 1531.17 34.5C1542.37 45.3 1551.07 58 1557.27 72.6C1563.47 87 1566.57 102.6 1566.57 119.4C1566.57 136.2 1563.47 151.9 1557.27 166.5C1551.07 180.9 1542.37 193.5 1531.17 204.3C1520.17 215.1 1506.97 223.6 1491.57 229.8C1476.17 235.8 1459.37 238.8 1441.17 238.8C1422.77 238.8 1405.87 235.8 1390.47 229.8C1375.27 223.6 1362.17 215.1 1351.17 204.3C1340.17 193.5 1331.57 180.9 1325.37 166.5C1319.17 151.9 1316.07 136.2 1316.07 119.4ZM1687.17 56.1V232.5H1628.37V56.1H1580.07V6.3H1735.47V56.1H1687.17ZM1745.87 218.1C1745.87 215.7 1746.32 213.45 1747.22 211.35C1748.12 209.15 1749.37 207.25 1750.97 205.65C1752.57 204.05 1754.42 202.8 1756.52 201.9C1758.72 201 1761.02 200.55 1763.42 200.55C1765.82 200.55 1768.07 201 1770.17 201.9C1772.37 202.8 1774.27 204.05 1775.87 205.65C1777.47 207.25 1778.72 209.15 1779.62 211.35C1780.52 213.45 1780.97 215.7 1780.97 218.1C1780.97 220.5 1780.52 222.8 1779.62 225C1778.72 227.1 1777.47 228.95 1775.87 230.55C1774.27 232.15 1772.37 233.4 1770.17 234.3C1768.07 235.2 1765.82 235.65 1763.42 235.65C1761.02 235.65 1758.72 235.2 1756.52 234.3C1754.42 233.4 1752.57 232.15 1750.97 230.55C1749.37 228.95 1748.12 227.1 1747.22 225C1746.32 222.8 1745.87 220.5 1745.87 218.1ZM1823.4 193.8C1823.4 196.3 1823.85 198.65 1824.75 200.85C1825.65 202.95 1826.85 204.8 1828.35 206.4C1829.95 208 1831.8 209.25 1833.9 210.15C1836.1 211.05 1838.45 211.5 1840.95 211.5C1843.35 211.5 1845.6 211.05 1847.7 210.15C1849.9 209.25 1851.75 208 1853.25 206.4C1854.85 204.8 1856.1 202.95 1857 200.85C1858 198.75 1858.5 196.5 1858.5 194.1C1858.5 191.7 1858 189.45 1857 187.35C1856.1 185.15 1854.85 183.25 1853.25 181.65C1851.75 180.05 1849.9 178.8 1847.7 177.9C1845.6 177 1843.35 176.55 1840.95 176.55C1838.45 176.55 1836.1 177 1833.9 177.9C1831.8 178.8 1829.95 180.05 1828.35 181.65C1826.85 183.25 1825.65 185.1 1824.75 187.2C1823.85 189.2 1823.4 191.4 1823.4 193.8ZM1857.6 155.55H1884.9V232.5H1857.6V223.95C1851.8 231.25 1843.95 234.9 1834.05 234.9C1828.45 234.9 1823.3 233.9 1818.6 231.9C1813.9 229.8 1809.8 226.9 1806.3 223.2C1802.8 219.5 1800.05 215.15 1798.05 210.15C1796.15 205.15 1795.2 199.7 1795.2 193.8C1795.2 188.3 1796.15 183.1 1798.05 178.2C1799.95 173.2 1802.6 168.85 1806 165.15C1809.4 161.45 1813.45 158.55 1818.15 156.45C1822.85 154.25 1828.05 153.15 1833.75 153.15C1843.35 153.15 1851.3 156.5 1857.6 163.2V155.55ZM1930.52 155.55V232.5H1903.37V155.55H1930.52ZM1901.57 126C1901.57 123.9 1901.97 121.95 1902.77 120.15C1903.57 118.25 1904.67 116.6 1906.07 115.2C1907.47 113.8 1909.07 112.7 1910.87 111.9C1912.77 111.1 1914.77 110.7 1916.87 110.7C1918.97 110.7 1920.92 111.1 1922.72 111.9C1924.62 112.7 1926.27 113.8 1927.67 115.2C1929.07 116.6 1930.17 118.25 1930.97 120.15C1931.77 121.95 1932.17 123.9 1932.17 126C1932.17 128.1 1931.77 130.1 1930.97 132C1930.17 133.8 1929.07 135.4 1927.67 136.8C1926.27 138.2 1924.62 139.3 1922.72 140.1C1920.92 140.9 1918.97 141.3 1916.87 141.3C1914.77 141.3 1912.77 140.9 1910.87 140.1C1909.07 139.3 1907.47 138.2 1906.07 136.8C1904.67 135.4 1903.57 133.8 1902.77 132C1901.97 130.1 1901.57 128.1 1901.57 126Z" fill="#E87000"/>
</svg>
