<svg width="32" height="32" viewBox="0 0 32 32" fill="none" xmlns="http://www.w3.org/2000/svg">
<rect width="32" height="32" fill="white"/>
<g clip-path="url(#clip0_2065_4)">
<path d="M0 25.929V7H8.25312C9.74896 7 11.0399 7.27728 12.126 7.83184C13.2187 8.38024 14.0609 9.14738 14.6527 10.1333C15.2445 11.113 15.5405 12.2529 15.5405 13.5531C15.5405 14.8594 15.238 16.0024 14.6332 16.9821C14.0349 17.9557 13.1796 18.7105 12.0675 19.2466C10.9554 19.7826 9.63515 20.0507 8.10678 20.0507H3.01444V16.446H7.20929C7.93769 16.446 8.5458 16.3259 9.03355 16.0856C9.52785 15.8452 9.90179 15.5094 10.1554 15.0781C10.4091 14.6406 10.5359 14.1323 10.5359 13.5531C10.5359 12.9677 10.4091 12.4624 10.1554 12.0373C9.90179 11.6059 9.52785 11.2732 9.03355 11.0391C8.53929 10.8049 7.93118 10.6878 7.20929 10.6878H4.82895V25.929H0Z" fill="black"/>
<path d="M16 25.929V7H24.3312C25.827 7 27.0788 7.20026 28.087 7.60077C29.1015 8.00129 29.8625 8.56201 30.3699 9.28294C30.8836 10.0039 31.1405 10.8388 31.1405 11.7877C31.1405 12.5086 30.9811 13.1526 30.6625 13.7194C30.3438 14.2801 29.9048 14.7454 29.3455 15.1151C28.7862 15.4848 28.1389 15.7436 27.4041 15.8915V16.0763C28.2106 16.1133 28.9551 16.3197 29.6381 16.6956C30.3276 17.0715 30.8803 17.5952 31.2965 18.2668C31.7127 18.9323 31.9209 19.721 31.9209 20.633C31.9209 21.6496 31.6479 22.5585 31.1015 23.3595C30.5551 24.1544 29.765 24.7829 28.731 25.2451C27.6967 25.701 26.4415 25.929 24.9653 25.929H16ZM20.8289 22.2412H23.8141C24.8612 22.2412 25.6319 22.0533 26.1261 21.6774C26.6269 21.3015 26.8775 20.7778 26.8775 20.1061C26.8775 19.6194 26.7571 19.2003 26.5165 18.8491C26.2758 18.4917 25.9344 18.2175 25.4921 18.0265C25.0498 17.8293 24.5198 17.7308 23.9019 17.7308H20.8289V22.2412ZM20.8289 14.7823H23.5019C24.0287 14.7823 24.497 14.6992 24.9067 14.5328C25.3165 14.3664 25.6352 14.1261 25.8627 13.8119C26.097 13.4976 26.214 13.1186 26.214 12.675C26.214 12.0403 25.9767 11.5412 25.5018 11.1777C25.027 10.8142 24.3864 10.6324 23.58 10.6324H20.8289V14.7823Z" fill="#F23B41"/>
</g>
<defs>
<clipPath id="clip0_2065_4">
<rect width="32" height="19" fill="white" transform="translate(0 7)"/>
</clipPath>
</defs>
</svg>
